<?xml version="1.0" standalone="no"?>
<svg viewBox="0 0 200 200" xmlns="http://www.w3.org/2000/svg">
  <path fill="#F4CE14" d="M44.6,-72.9C56.7,-70.2,64.7,-56.1,67.6,-42C70.6,-28,68.5,-14,64.7,-2.2C60.8,9.5,55.1,19,48.6,26.9C42.1,34.9,34.8,41.3,26.6,47.9C18.3,54.5,9.2,61.3,-0.9,62.8C-10.9,64.4,-21.9,60.6,-34.5,56.5C-47.1,52.4,-61.3,48,-68.9,38.6C-76.6,29.1,-77.5,14.5,-79,-0.8C-80.4,-16.2,-82.3,-32.4,-75.7,-43.6C-69,-54.8,-54,-61.1,-40,-62.7C-25.9,-64.2,-13,-61.1,1.6,-63.9C16.2,-66.7,32.5,-75.5,44.6,-72.9Z" transform="translate(100 100)" />
</svg>
